<?xml version="1.0" encoding="utf-8"?>
<!-- Generator: Adobe Illustrator 24.0.1, SVG Export Plug-In . SVG Version: 6.00 Build 0)  -->
<svg version="1.1" id="Layer_1" xmlns="http://www.w3.org/2000/svg" xmlns:xlink="http://www.w3.org/1999/xlink" x="0px" y="0px"
	 viewBox="0 0 50 50" style="enable-background:new 0 0 50 50;" xml:space="preserve">
<path d="M28.97,20.63l5.89,18.06c0.86,2.65-1.21,5.49-3.99,5.2c-0.85-0.09-1.57-0.44-1.88-1.09l-8.94-29.95
	c-0.01-0.05-0.08-0.05-0.1,0L8.98,40.45c-0.66,1.67-2.32,2.74-4.11,2.66L4.66,43.1c-2-0.09-3.3-2.15-2.52-4L16.98,4.35
	c0.61-1.42,2.04-2.32,3.58-2.25l0.01,0c1.44,0.06,2.69,1.01,3.14,2.39L28.97,20.63"/>
<path d="M32.15,45.34c3.03,0.42,6.48-2.2,4.22-9.54L26.35,6.28c-0.71-2.09,0.41-4.36,2.5-5.06l0,0c2.09-0.71,4.36,0.41,5.06,2.5
	l10.03,29.55c4.66,13.72-5.68,16.48-8.35,14.99C33.85,47.4,30.79,45.16,32.15,45.34z"/>
</svg>
