<?xml version="1.0" encoding="utf-8"?>
<!-- Generator: Adobe Illustrator 24.0.1, SVG Export Plug-In . SVG Version: 6.00 Build 0)  -->
<svg version="1.1" id="Layer_1" xmlns="http://www.w3.org/2000/svg" xmlns:xlink="http://www.w3.org/1999/xlink" x="0px" y="0px"
	 viewBox="0 0 50 50" style="enable-background:new 0 0 50 50;" xml:space="preserve">
<style type="text/css">
	.st0{fill:url(#SVGID_1_);}
	.st1{fill:url(#SVGID_2_);}
</style>
<linearGradient id="SVGID_1_" gradientUnits="userSpaceOnUse" x1="5.3978" y1="29.0929" x2="32.942" y2="20.8776">
	<stop  offset="0" style="stop-color:#4F004A"/>
	<stop  offset="0.0616" style="stop-color:#530753"/>
	<stop  offset="0.1615" style="stop-color:#5E1B6B"/>
	<stop  offset="0.2873" style="stop-color:#703B92"/>
	<stop  offset="0.4324" style="stop-color:#8967C8"/>
	<stop  offset="0.5645" style="stop-color:#A294FF"/>
	<stop  offset="0.6094" style="stop-color:#9F98FD"/>
	<stop  offset="0.6561" style="stop-color:#96A5F8"/>
	<stop  offset="0.7037" style="stop-color:#87BAEF"/>
	<stop  offset="0.7519" style="stop-color:#72D7E2"/>
	<stop  offset="0.8001" style="stop-color:#57FCD2"/>
	<stop  offset="0.8037" style="stop-color:#55FFD1"/>
	<stop  offset="0.8487" style="stop-color:#39C8BE"/>
	<stop  offset="0.9019" style="stop-color:#1A8EA9"/>
	<stop  offset="0.9413" style="stop-color:#07699C"/>
	<stop  offset="0.9622" style="stop-color:#005B97"/>
</linearGradient>
<path class="st0" d="M28.97,20.63l5.89,18.06c0.86,2.65-1.21,5.49-3.99,5.2c-0.85-0.09-1.57-0.44-1.88-1.09l-8.94-29.95
	c-0.01-0.05-0.08-0.05-0.1,0L8.98,40.45c-0.66,1.67-2.32,2.74-4.11,2.66L4.66,43.1c-2-0.09-3.3-2.15-2.52-4L16.98,4.35
	c0.61-1.42,2.04-2.32,3.58-2.25l0.01,0c1.44,0.06,2.69,1.01,3.14,2.39L28.97,20.63"/>
<linearGradient id="SVGID_2_" gradientUnits="userSpaceOnUse" x1="26.0034" y1="27.3178" x2="43.0836" y2="21.8033">
	<stop  offset="0.2921" style="stop-color:#4F004A"/>
	<stop  offset="0.3207" style="stop-color:#530853"/>
	<stop  offset="0.3681" style="stop-color:#5F1D6D"/>
	<stop  offset="0.4287" style="stop-color:#723E96"/>
	<stop  offset="0.4992" style="stop-color:#8C6DCF"/>
	<stop  offset="0.5525" style="stop-color:#A294FF"/>
	<stop  offset="0.6015" style="stop-color:#9F98FD"/>
	<stop  offset="0.6526" style="stop-color:#96A5F8"/>
	<stop  offset="0.6759" style="stop-color:#90ADF4"/>
	<stop  offset="0.7122" style="stop-color:#81C2EB"/>
	<stop  offset="0.7867" style="stop-color:#5BF7D5"/>
	<stop  offset="0.7977" style="stop-color:#55FFD1"/>
	<stop  offset="0.9944" style="stop-color:#005B97"/>
</linearGradient>
<path class="st1" d="M33.04,46.15c-0.26-0.51-0.1-1.15,0.39-1.45c1.76-1.08,4.55-3.7,2.95-8.91L26.35,6.28
	c-0.71-2.09,0.41-4.36,2.5-5.06l0,0c2.09-0.71,4.36,0.41,5.06,2.5l10.03,29.55c4.66,13.72-5.54,16.2-8.35,14.99
	C35.21,48.09,34,48,33.04,46.15z"/>
</svg>
