<svg height="512.00025pt" viewBox="0 0 512.00025 512.00025" width="512.00025pt" xmlns="http://www.w3.org/2000/svg"><path d="m354.84375 509.398438c-4.210938 1.734374-8.722656 2.617187-13.277344 2.601562h-179.808594c-4.554687.015625-9.066406-.867188-13.277343-2.601562l40.613281-105.351563c4.910156 2.53125 10.355469 3.839844 15.878906 3.816406h93.375c5.523438.023438 10.972656-1.285156 15.882813-3.816406zm0 0" fill="#c03a2b"/><path d="m189.09375 404.046875-40.613281 105.351563c-4.164063-1.808594-7.960938-4.367188-11.195313-7.550782l-127.132812-127.132812c-3.183594-3.234375-5.742188-7.03125-7.546875-11.195313l105.347656-40.613281c1.664063 3.195312 3.800781 6.121094 6.335937 8.679688l66.125 66.125c2.558594 2.535156 5.484376 4.671874 8.679688 6.335937zm0 0" fill="#802f34"/><path d="m104.136719 307.027344c-.023438 5.523437 1.285156 10.972656 3.816406 15.878906l-105.347656 40.613281c-1.738281-4.210937-2.621094-8.722656-2.605469-13.277343v-179.808594c-.015625-4.550782.867188-9.066406 2.605469-13.277344l105.347656 40.613281c-2.53125 4.910157-3.839844 10.359375-3.816406 15.882813zm0 0" fill="#c03a2b"/><path d="m189.09375 116.632812c-3.195312 1.664063-6.121094 3.800782-8.679688 6.332032l-66.125 66.128906c-2.535156 2.558594-4.671874 5.484375-6.335937 8.675781l-105.347656-40.613281c1.804687-4.164062 4.363281-7.957031 7.546875-11.191406l127.132812-127.132813c3.234375-3.183593 7.03125-5.742187 11.195313-7.550781zm0 0" fill="#802f34"/><path d="m354.84375 11.28125-40.613281 105.351562c-4.910157-2.535156-10.359375-3.84375-15.882813-3.820312h-93.375c-5.523437-.023438-10.96875 1.285156-15.878906 3.820312l-40.613281-105.351562c4.210937-1.734375 8.722656-2.621094 13.277343-2.601562h179.808594c4.554688-.019532 9.066406.867187 13.277344 2.601562zm0 0" fill="#c03a2b"/><path d="m500.71875 157.15625-113.074219 42.4375-7.894531-19.785156-56.84375-56.84375c-2.558594-2.53125-5.484375-4.667969-8.675781-6.332032l40.613281-105.351562c4.164062 1.808594 7.957031 4.367188 11.191406 7.550781l127.132813 127.132813c3.183593 3.234375 5.742187 7.027344 7.550781 11.191406zm0 0" fill="#802f34"/><path d="m503.324219 170.433594v179.808594c.015625 4.554687-.871094 9.066406-2.605469 13.277343l-105.351562-40.613281c2.535156-4.90625 3.84375-10.355469 3.820312-15.878906v-78.710938l-11.542969-28.722656 113.074219-42.4375c1.734375 4.210938 2.621094 8.726562 2.605469 13.277344zm0 0" fill="#c03a2b"/><path d="m500.71875 363.519531c-1.808594 4.164063-4.367188 7.960938-7.550781 11.195313l-127.132813 127.132812c-3.234375 3.183594-7.027344 5.742188-11.191406 7.550782l-40.613281-105.351563c3.191406-1.664063 6.117187-3.800781 8.675781-6.335937l66.128906-66.125c2.535156-2.558594 4.667969-5.484376 6.332032-8.679688zm0 0" fill="#802f34"/><path d="m399.1875 228.316406v78.710938c.023438 5.523437-1.285156 10.972656-3.820312 15.878906-1.664063 3.195312-3.796876 6.121094-6.332032 8.679688l-66.128906 66.125c-2.558594 2.535156-5.484375 4.671874-8.675781 6.335937-4.910157 2.53125-10.359375 3.839844-15.882813 3.816406h-93.375c-5.523437.023438-10.96875-1.285156-15.878906-3.816406-3.195312-1.664063-6.121094-3.800781-8.679688-6.335937l-66.125-66.125c-2.535156-2.558594-4.671874-5.484376-6.335937-8.679688-2.53125-4.90625-3.839844-10.355469-3.816406-15.878906v-93.375c-.023438-5.523438 1.285156-10.972656 3.816406-15.882813 1.664063-3.191406 3.800781-6.117187 6.335937-8.675781l66.125-66.128906c2.558594-2.53125 5.484376-4.667969 8.679688-6.332032 4.910156-2.535156 10.355469-3.84375 15.878906-3.820312h93.375c5.523438-.023438 10.972656 1.285156 15.882813 3.820312 3.191406 1.664063 6.117187 3.800782 8.675781 6.332032l56.84375 56.84375 7.894531 19.785156zm0 0" fill="#e64c3c"/><g fill="#fb7b76"><path d="m138.847656 312.40625c-4.792968 0-8.679687-3.882812-8.679687-8.675781v-86.78125c0-4.792969 3.886719-8.679688 8.679687-8.679688 4.792969 0 8.679688 3.886719 8.679688 8.679688v86.78125c0 4.792969-3.886719 8.675781-8.679688 8.675781zm0 0"/><path d="m26.035156 52.066406c-4.792968 0-8.679687-3.882812-8.679687-8.675781v-34.710937c0-4.792969 3.886719-8.679688 8.679687-8.679688 4.792969 0 8.675782 3.886719 8.675782 8.679688v34.710937c0 4.792969-3.882813 8.675781-8.675782 8.675781zm0 0"/><path d="m43.390625 34.710938h-34.710937c-4.792969 0-8.679688-3.882813-8.679688-8.675782 0-4.792968 3.886719-8.679687 8.679688-8.679687h34.710937c4.792969 0 8.675781 3.886719 8.675781 8.679687 0 4.792969-3.882812 8.675782-8.675781 8.675782zm0 0"/><path d="m485.964844 95.457031c-4.792969 0-8.675782-3.882812-8.675782-8.675781v-34.714844c0-4.792968 3.882813-8.675781 8.675782-8.675781 4.792968 0 8.679687 3.882813 8.679687 8.675781v34.714844c0 4.792969-3.886719 8.675781-8.679687 8.675781zm0 0"/><path d="m503.324219 78.101562h-34.714844c-4.792969 0-8.675781-3.886718-8.675781-8.679687 0-4.789063 3.882812-8.675781 8.675781-8.675781h34.714844c4.789062 0 8.675781 3.886718 8.675781 8.675781 0 4.792969-3.886719 8.679687-8.675781 8.679687zm0 0"/></g><path d="m459.933594 199.59375c0 33.546875-27.199219 60.746094-60.746094 60.746094-33.550781 0-60.746094-27.199219-60.746094-60.746094 0-33.550781 27.195313-60.746094 60.746094-60.746094 33.546875 0 60.746094 27.195313 60.746094 60.746094zm0 0" fill="#fff"/></svg>