<svg id="_20-gem" height="512" viewBox="0 0 192 192" width="512" xmlns="http://www.w3.org/2000/svg" xmlns:xlink="http://www.w3.org/1999/xlink" data-name="20-gem"><linearGradient id="New_Gradient_Swatch_1" gradientUnits="userSpaceOnUse" x1="26.343" x2="101.657" y1="133.657" y2="58.343"><stop offset="0" stop-color="#ff85a6"/><stop offset="1" stop-color="#d0b3e4"/></linearGradient><g id="Flat"><path d="m125.743 35.431-32-33a8 8 0 0 0 -5.743-2.431h-48a8 8 0 0 0 -5.657 2.343l-32 32a8 8 0 0 0 -2.343 5.657v112a8 8 0 0 0 2.343 5.657l32 32a8 8 0 0 0 5.657 2.343h48a8 8 0 0 0 5.657-2.343l32-32a8 8 0 0 0 2.343-5.657v-111a8 8 0 0 0 -2.257-5.569z" fill="#ffcedb"/><path d="m34.343 50.343 16-16a7.975 7.975 0 0 1 2.083-1.492l-16-32a7.975 7.975 0 0 0 -2.083 1.492l-32 32a7.975 7.975 0 0 0 -1.492 2.083l32 16a7.975 7.975 0 0 1 1.492-2.083z" fill="#ffb6ca"/><path d="m56 32h16a7.99 7.99 0 0 1 3.574.851l16-32a8 8 0 0 0 -3.574-.851h-48a7.99 7.99 0 0 0 -3.574.851l16 32a7.99 7.99 0 0 1 3.574-.851z" fill="#ffcedb"/><path d="m77.657 34.343 16 16a7.975 7.975 0 0 1 1.492 2.083l31.561-15.781a7.952 7.952 0 0 0 -.967-1.214l-32-33a7.98 7.98 0 0 0 -2.169-1.578l-16 32a7.975 7.975 0 0 1 2.083 1.49z" fill="#ffe7ed"/><path d="m93.657 141.657-16 16a7.975 7.975 0 0 1 -2.083 1.492l16 32a7.975 7.975 0 0 0 2.083-1.492l32-32a7.975 7.975 0 0 0 1.492-2.083l-32-16a7.975 7.975 0 0 1 -1.492 2.083z" fill="#ffb6ca"/><path d="m72 160h-16a7.99 7.99 0 0 1 -3.574-.851l-16 32a7.99 7.99 0 0 0 3.574.851h48a7.99 7.99 0 0 0 3.574-.851l-16-32a7.99 7.99 0 0 1 -3.574.851z" fill="#ff9db8"/><path d="m128 41a8 8 0 0 0 -1.29-4.355l-31.561 15.781a7.99 7.99 0 0 1 .851 3.574v80a7.99 7.99 0 0 1 -.851 3.574l32 16a7.99 7.99 0 0 0 .851-3.574z" fill="#ffcedb"/><path d="m50.343 157.657-16-16a7.975 7.975 0 0 1 -1.492-2.083l-32 16a7.975 7.975 0 0 0 1.492 2.083l32 32a7.975 7.975 0 0 0 2.083 1.492l16-32a7.975 7.975 0 0 1 -2.083-1.492z" fill="#ff91af"/><path d="m32 136v-80a7.99 7.99 0 0 1 .851-3.574l-32-16a7.99 7.99 0 0 0 -.851 3.574v112a7.99 7.99 0 0 0 .851 3.574l32-16a7.99 7.99 0 0 1 -.851-3.574z" fill="#ff9db8"/><path d="m93.657 50.343-16-16a8 8 0 0 0 -5.657-2.343h-16a8 8 0 0 0 -5.657 2.343l-16 16a8 8 0 0 0 -2.343 5.657v80a8 8 0 0 0 2.343 5.657l16 16a8 8 0 0 0 5.657 2.343h16a8 8 0 0 0 5.657-2.343l16-16a8 8 0 0 0 2.343-5.657v-80a8 8 0 0 0 -2.343-5.657z" fill="url(#New_Gradient_Swatch_1)"/><path d="m167.87 18.609a2 2 0 0 0 -2-2 14.246 14.246 0 0 1 -14.131-14.326 2 2 0 1 0 -4 0 14.246 14.246 0 0 1 -14.13 14.326 2 2 0 0 0 0 4 14.245 14.245 0 0 1 14.13 14.326 2 2 0 0 0 4 0 14.245 14.245 0 0 1 14.131-14.326 2 2 0 0 0 2-2z" fill="#ffcedb"/><path d="m191.87 48.609a2 2 0 0 0 -2-2 14.246 14.246 0 0 1 -14.131-14.326 2 2 0 1 0 -4 0 14.246 14.246 0 0 1 -14.13 14.326 2 2 0 0 0 0 4 14.245 14.245 0 0 1 14.13 14.326 2 2 0 0 0 4 0 14.245 14.245 0 0 1 14.131-14.326 2 2 0 0 0 2-2z" fill="#ffe7ed"/><path d="m167.87 82.609a2 2 0 0 0 -2-2 14.246 14.246 0 0 1 -14.131-14.326 2 2 0 1 0 -4 0 14.246 14.246 0 0 1 -14.13 14.326 2 2 0 0 0 0 4 14.245 14.245 0 0 1 14.13 14.326 2 2 0 0 0 4 0 14.245 14.245 0 0 1 14.131-14.326 2 2 0 0 0 2-2z" fill="#ffcedb"/></g></svg>